<mxfile host="app.diagrams.net" modified="2020-12-09T19:24:38.783Z" agent="5.0 (Windows)" etag="gWExCzq9WeDAQ50702lG" version="13.11.0" type="github">
  <diagram id="s0R87GjOq4F6TkN3tkKj" name="Page-1">
    <mxGraphModel dx="958" dy="949" grid="1" gridSize="10" guides="1" tooltips="1" connect="1" arrows="1" fold="1" page="1" pageScale="1" pageWidth="827" pageHeight="1169" math="0" shadow="0">
      <root>
        <mxCell id="0" />
        <mxCell id="1" parent="0" />
        <mxCell id="e0_IQEDSQjE5c7QdDcf6-1" value="" style="rounded=0;whiteSpace=wrap;html=1;" vertex="1" parent="1">
          <mxGeometry x="40" y="40" width="750" height="540" as="geometry" />
        </mxCell>
        <mxCell id="e0_IQEDSQjE5c7QdDcf6-2" value="" style="rounded=0;whiteSpace=wrap;html=1;" vertex="1" parent="1">
          <mxGeometry x="60" y="60" width="710" height="100" as="geometry" />
        </mxCell>
        <mxCell id="e0_IQEDSQjE5c7QdDcf6-4" value="&lt;font style=&quot;font-size: 18px&quot;&gt;Dungeon: the Pit&lt;/font&gt;" style="text;html=1;strokeColor=none;fillColor=none;align=center;verticalAlign=middle;whiteSpace=wrap;rounded=0;" vertex="1" parent="1">
          <mxGeometry x="90" y="100" width="170" height="20" as="geometry" />
        </mxCell>
        <mxCell id="e0_IQEDSQjE5c7QdDcf6-5" value="&lt;font style=&quot;font-size: 14px&quot;&gt;Monsters slayn: k/n&lt;/font&gt;" style="text;html=1;strokeColor=none;fillColor=none;align=center;verticalAlign=middle;whiteSpace=wrap;rounded=0;" vertex="1" parent="1">
          <mxGeometry x="550" y="100" width="180" height="20" as="geometry" />
        </mxCell>
        <mxCell id="e0_IQEDSQjE5c7QdDcf6-6" value="" style="rounded=0;whiteSpace=wrap;html=1;" vertex="1" parent="1">
          <mxGeometry x="60" y="230" width="390" height="330" as="geometry" />
        </mxCell>
        <mxCell id="e0_IQEDSQjE5c7QdDcf6-7" value="" style="rounded=0;whiteSpace=wrap;html=1;" vertex="1" parent="1">
          <mxGeometry x="480" y="230" width="290" height="330" as="geometry" />
        </mxCell>
        <mxCell id="e0_IQEDSQjE5c7QdDcf6-9" value="&lt;div align=&quot;left&quot;&gt;&lt;font style=&quot;font-size: 14px&quot;&gt;Hero:&lt;/font&gt;&lt;/div&gt;" style="text;html=1;strokeColor=none;fillColor=none;align=left;verticalAlign=middle;whiteSpace=wrap;rounded=0;" vertex="1" parent="1">
          <mxGeometry x="60" y="200" width="40" height="20" as="geometry" />
        </mxCell>
        <mxCell id="e0_IQEDSQjE5c7QdDcf6-10" value="&lt;div align=&quot;left&quot;&gt;&lt;font style=&quot;font-size: 14px&quot;&gt;Monster:&lt;/font&gt;&lt;/div&gt;" style="text;html=1;strokeColor=none;fillColor=none;align=left;verticalAlign=middle;whiteSpace=wrap;rounded=0;" vertex="1" parent="1">
          <mxGeometry x="480" y="200" width="40" height="20" as="geometry" />
        </mxCell>
        <mxCell id="e0_IQEDSQjE5c7QdDcf6-11" value="" style="rounded=1;whiteSpace=wrap;html=1;" vertex="1" parent="1">
          <mxGeometry x="80" y="250" width="120" height="60" as="geometry" />
        </mxCell>
        <mxCell id="e0_IQEDSQjE5c7QdDcf6-12" value="" style="rounded=1;whiteSpace=wrap;html=1;" vertex="1" parent="1">
          <mxGeometry x="80" y="330" width="120" height="60" as="geometry" />
        </mxCell>
        <mxCell id="e0_IQEDSQjE5c7QdDcf6-13" value="&lt;font style=&quot;font-size: 14px&quot;&gt;attack !&lt;/font&gt;" style="text;html=1;strokeColor=none;fillColor=none;align=center;verticalAlign=middle;whiteSpace=wrap;rounded=0;" vertex="1" parent="1">
          <mxGeometry x="115" y="270" width="50" height="20" as="geometry" />
        </mxCell>
        <mxCell id="e0_IQEDSQjE5c7QdDcf6-14" value="&lt;font style=&quot;font-size: 14px&quot;&gt;defend&lt;/font&gt;&lt;font size=&quot;3&quot;&gt; !&lt;/font&gt;" style="text;html=1;strokeColor=none;fillColor=none;align=center;verticalAlign=middle;whiteSpace=wrap;rounded=0;" vertex="1" parent="1">
          <mxGeometry x="110" y="350" width="60" height="20" as="geometry" />
        </mxCell>
        <mxCell id="e0_IQEDSQjE5c7QdDcf6-16" value="" style="rounded=0;whiteSpace=wrap;html=1;" vertex="1" parent="1">
          <mxGeometry x="220" y="250" width="210" height="140" as="geometry" />
        </mxCell>
        <mxCell id="e0_IQEDSQjE5c7QdDcf6-17" value="" style="shape=actor;whiteSpace=wrap;html=1;" vertex="1" parent="1">
          <mxGeometry x="300" y="300" width="60" height="90" as="geometry" />
        </mxCell>
        <mxCell id="e0_IQEDSQjE5c7QdDcf6-18" value="" style="rounded=0;whiteSpace=wrap;html=1;" vertex="1" parent="1">
          <mxGeometry x="500" y="250" width="250" height="140" as="geometry" />
        </mxCell>
        <mxCell id="e0_IQEDSQjE5c7QdDcf6-19" value="" style="shape=actor;whiteSpace=wrap;html=1;" vertex="1" parent="1">
          <mxGeometry x="552.5" y="270" width="145" height="120" as="geometry" />
        </mxCell>
        <mxCell id="e0_IQEDSQjE5c7QdDcf6-20" value="" style="ellipse;whiteSpace=wrap;html=1;aspect=fixed;" vertex="1" parent="1">
          <mxGeometry x="610" y="280" width="30" height="30" as="geometry" />
        </mxCell>
        <mxCell id="e0_IQEDSQjE5c7QdDcf6-21" value="Name: Cyclop" style="text;html=1;strokeColor=none;fillColor=none;align=center;verticalAlign=middle;whiteSpace=wrap;rounded=0;" vertex="1" parent="1">
          <mxGeometry x="555" y="420" width="140" height="20" as="geometry" />
        </mxCell>
        <mxCell id="e0_IQEDSQjE5c7QdDcf6-22" value="Battlepose: attack" style="text;html=1;strokeColor=none;fillColor=none;align=center;verticalAlign=middle;whiteSpace=wrap;rounded=0;" vertex="1" parent="1">
          <mxGeometry x="562.5" y="460" width="125" height="20" as="geometry" />
        </mxCell>
        <mxCell id="e0_IQEDSQjE5c7QdDcf6-23" value="Lifepoints: 100" style="text;html=1;strokeColor=none;fillColor=none;align=center;verticalAlign=middle;whiteSpace=wrap;rounded=0;" vertex="1" parent="1">
          <mxGeometry x="570" y="500" width="110" height="20" as="geometry" />
        </mxCell>
        <mxCell id="e0_IQEDSQjE5c7QdDcf6-24" value="" style="rounded=0;whiteSpace=wrap;html=1;" vertex="1" parent="1">
          <mxGeometry x="80" y="410" width="120" height="130" as="geometry" />
        </mxCell>
        <mxCell id="e0_IQEDSQjE5c7QdDcf6-25" value="Name: Slaylord" style="text;html=1;strokeColor=none;fillColor=none;align=center;verticalAlign=middle;whiteSpace=wrap;rounded=0;" vertex="1" parent="1">
          <mxGeometry x="80" y="420" width="120" height="20" as="geometry" />
        </mxCell>
        <mxCell id="e0_IQEDSQjE5c7QdDcf6-26" value="Liefpoints: 100" style="text;html=1;strokeColor=none;fillColor=none;align=center;verticalAlign=middle;whiteSpace=wrap;rounded=0;" vertex="1" parent="1">
          <mxGeometry x="67.5" y="460" width="145" height="20" as="geometry" />
        </mxCell>
        <mxCell id="e0_IQEDSQjE5c7QdDcf6-27" value="Coins: 100" style="text;html=1;strokeColor=none;fillColor=none;align=center;verticalAlign=middle;whiteSpace=wrap;rounded=0;" vertex="1" parent="1">
          <mxGeometry x="95" y="500" width="90" height="20" as="geometry" />
        </mxCell>
        <mxCell id="e0_IQEDSQjE5c7QdDcf6-28" value="" style="rounded=0;whiteSpace=wrap;html=1;" vertex="1" parent="1">
          <mxGeometry x="220" y="410" width="210" height="130" as="geometry" />
        </mxCell>
        <mxCell id="e0_IQEDSQjE5c7QdDcf6-29" value="" style="rounded=0;whiteSpace=wrap;html=1;" vertex="1" parent="1">
          <mxGeometry x="230" y="420" width="160" height="30" as="geometry" />
        </mxCell>
        <mxCell id="e0_IQEDSQjE5c7QdDcf6-30" value="" style="shape=singleArrow;direction=north;whiteSpace=wrap;html=1;" vertex="1" parent="1">
          <mxGeometry x="400" y="420" width="25" height="30" as="geometry" />
        </mxCell>
        <mxCell id="e0_IQEDSQjE5c7QdDcf6-31" value="" style="shape=singleArrow;direction=south;whiteSpace=wrap;html=1;" vertex="1" parent="1">
          <mxGeometry x="404" y="500" width="20" height="30" as="geometry" />
        </mxCell>
        <mxCell id="e0_IQEDSQjE5c7QdDcf6-32" value="swipe up or down" style="text;html=1;strokeColor=none;fillColor=none;align=center;verticalAlign=middle;whiteSpace=wrap;rounded=0;" vertex="1" parent="1">
          <mxGeometry x="392.5" y="465" width="40" height="20" as="geometry" />
        </mxCell>
        <mxCell id="e0_IQEDSQjE5c7QdDcf6-35" value="Name: Atk" style="text;html=1;strokeColor=none;fillColor=none;align=center;verticalAlign=middle;whiteSpace=wrap;rounded=0;" vertex="1" parent="1">
          <mxGeometry x="265" y="425" width="40" height="20" as="geometry" />
        </mxCell>
        <mxCell id="e0_IQEDSQjE5c7QdDcf6-36" value="&lt;div&gt;level:&lt;/div&gt;&lt;div&gt;7&lt;br&gt;&lt;/div&gt;" style="text;html=1;strokeColor=none;fillColor=none;align=center;verticalAlign=middle;whiteSpace=wrap;rounded=0;" vertex="1" parent="1">
          <mxGeometry x="305" y="425" width="40" height="20" as="geometry" />
        </mxCell>
        <mxCell id="e0_IQEDSQjE5c7QdDcf6-37" value="&lt;div&gt;lvl cost:&lt;/div&gt;&lt;div&gt;5 Coins&lt;br&gt;&lt;/div&gt;" style="text;html=1;strokeColor=none;fillColor=none;align=center;verticalAlign=middle;whiteSpace=wrap;rounded=0;" vertex="1" parent="1">
          <mxGeometry x="340" y="425" width="50" height="20" as="geometry" />
        </mxCell>
        <mxCell id="e0_IQEDSQjE5c7QdDcf6-38" value="" style="ellipse;whiteSpace=wrap;html=1;aspect=fixed;" vertex="1" parent="1">
          <mxGeometry x="240" y="425" width="20" height="20" as="geometry" />
        </mxCell>
        <mxCell id="e0_IQEDSQjE5c7QdDcf6-43" value="" style="shape=cross;whiteSpace=wrap;html=1;" vertex="1" parent="1">
          <mxGeometry x="242.5" y="425" width="15" height="20" as="geometry" />
        </mxCell>
        <mxCell id="e0_IQEDSQjE5c7QdDcf6-44" value="" style="rounded=0;whiteSpace=wrap;html=1;" vertex="1" parent="1">
          <mxGeometry x="230" y="500" width="160" height="30" as="geometry" />
        </mxCell>
        <mxCell id="e0_IQEDSQjE5c7QdDcf6-45" value="Name: SAtk" style="text;html=1;strokeColor=none;fillColor=none;align=center;verticalAlign=middle;whiteSpace=wrap;rounded=0;" vertex="1" parent="1">
          <mxGeometry x="265" y="505" width="40" height="20" as="geometry" />
        </mxCell>
        <mxCell id="e0_IQEDSQjE5c7QdDcf6-46" value="&lt;div&gt;level:&lt;/div&gt;&lt;div&gt;7&lt;br&gt;&lt;/div&gt;" style="text;html=1;strokeColor=none;fillColor=none;align=center;verticalAlign=middle;whiteSpace=wrap;rounded=0;" vertex="1" parent="1">
          <mxGeometry x="305" y="505" width="40" height="20" as="geometry" />
        </mxCell>
        <mxCell id="e0_IQEDSQjE5c7QdDcf6-47" value="&lt;div&gt;lvl cost:&lt;/div&gt;&lt;div&gt;5 Coins&lt;br&gt;&lt;/div&gt;" style="text;html=1;strokeColor=none;fillColor=none;align=center;verticalAlign=middle;whiteSpace=wrap;rounded=0;" vertex="1" parent="1">
          <mxGeometry x="340" y="505" width="50" height="20" as="geometry" />
        </mxCell>
        <mxCell id="e0_IQEDSQjE5c7QdDcf6-48" value="" style="ellipse;whiteSpace=wrap;html=1;aspect=fixed;" vertex="1" parent="1">
          <mxGeometry x="240" y="505" width="20" height="20" as="geometry" />
        </mxCell>
        <mxCell id="e0_IQEDSQjE5c7QdDcf6-49" value="" style="shape=cross;whiteSpace=wrap;html=1;" vertex="1" parent="1">
          <mxGeometry x="242.5" y="505" width="15" height="20" as="geometry" />
        </mxCell>
        <mxCell id="e0_IQEDSQjE5c7QdDcf6-50" value="" style="rounded=0;whiteSpace=wrap;html=1;" vertex="1" parent="1">
          <mxGeometry x="230" y="460" width="160" height="30" as="geometry" />
        </mxCell>
        <mxCell id="e0_IQEDSQjE5c7QdDcf6-51" value="Name: Def" style="text;html=1;strokeColor=none;fillColor=none;align=center;verticalAlign=middle;whiteSpace=wrap;rounded=0;" vertex="1" parent="1">
          <mxGeometry x="265" y="465" width="40" height="20" as="geometry" />
        </mxCell>
        <mxCell id="e0_IQEDSQjE5c7QdDcf6-52" value="&lt;div&gt;level:&lt;/div&gt;&lt;div&gt;4&lt;br&gt;&lt;/div&gt;" style="text;html=1;strokeColor=none;fillColor=none;align=center;verticalAlign=middle;whiteSpace=wrap;rounded=0;" vertex="1" parent="1">
          <mxGeometry x="305" y="465" width="40" height="20" as="geometry" />
        </mxCell>
        <mxCell id="e0_IQEDSQjE5c7QdDcf6-53" value="&lt;div&gt;lvl cost:&lt;/div&gt;&lt;div&gt;4 Coins&lt;br&gt;&lt;/div&gt;" style="text;html=1;strokeColor=none;fillColor=none;align=center;verticalAlign=middle;whiteSpace=wrap;rounded=0;" vertex="1" parent="1">
          <mxGeometry x="340" y="465" width="50" height="20" as="geometry" />
        </mxCell>
        <mxCell id="e0_IQEDSQjE5c7QdDcf6-54" value="" style="ellipse;whiteSpace=wrap;html=1;aspect=fixed;" vertex="1" parent="1">
          <mxGeometry x="240" y="465" width="20" height="20" as="geometry" />
        </mxCell>
        <mxCell id="e0_IQEDSQjE5c7QdDcf6-55" value="" style="shape=cross;whiteSpace=wrap;html=1;" vertex="1" parent="1">
          <mxGeometry x="242.5" y="465" width="15" height="20" as="geometry" />
        </mxCell>
      </root>
    </mxGraphModel>
  </diagram>
</mxfile>
